<svg width="16" height="17" viewBox="0 0 16 17" fill="none" xmlns="http://www.w3.org/2000/svg">
<path d="M5.33337 10.9999L11.1468 10.5155C12.9658 10.3639 13.3741 9.96659 13.5757 8.15252L14 4.33325" stroke="#1C2834" stroke-width="1.5" stroke-linecap="round"/>
<path d="M4 4.33325H5.66667M14.6667 4.33325H12.3333" stroke="#1C2834" stroke-width="1.5" stroke-linecap="round"/>
<path d="M7.33337 5.99992C7.66104 6.33705 8.53324 7.66659 9.00004 7.66659M9.00004 7.66659C9.46684 7.66659 10.339 6.33705 10.6667 5.99992M9.00004 7.66659V2.33325" stroke="#1C2834" stroke-width="1.5" stroke-linecap="round" stroke-linejoin="round"/>
<path d="M3.99996 14.9999C4.73634 14.9999 5.33329 14.403 5.33329 13.6666C5.33329 12.9302 4.73634 12.3333 3.99996 12.3333C3.26358 12.3333 2.66663 12.9302 2.66663 13.6666C2.66663 14.403 3.26358 14.9999 3.99996 14.9999Z" stroke="#1C2834" stroke-width="1.5"/>
<path d="M11.3333 14.9999C12.0697 14.9999 12.6667 14.403 12.6667 13.6666C12.6667 12.9302 12.0697 12.3333 11.3333 12.3333C10.597 12.3333 10 12.9302 10 13.6666C10 14.403 10.597 14.9999 11.3333 14.9999Z" stroke="#1C2834" stroke-width="1.5"/>
<path d="M5.33337 13.6665H10" stroke="#1C2834" stroke-width="1.5" stroke-linecap="round"/>
<path d="M1.33337 1.6665H1.97737C2.60716 1.6665 3.15613 2.0829 3.30888 2.67646L5.29239 10.3842C5.39262 10.7737 5.30684 11.1863 5.05887 11.5076L4.42146 12.3332" stroke="#1C2834" stroke-width="1.5" stroke-linecap="round"/>
</svg>
