<svg width="16" height="16" viewBox="0 0 16 16" fill="none" xmlns="http://www.w3.org/2000/svg">
<path d="M5.33334 10.6667L11.1467 10.1822C12.9657 10.0307 13.3741 9.63333 13.5757 7.81927L14 4" stroke="#495D69" stroke-width="1.5" stroke-linecap="round"/>
<path d="M4 4H14.6667" stroke="#495D69" stroke-width="1.5" stroke-linecap="round"/>
<path d="M3.99999 14.6667C4.73637 14.6667 5.33332 14.0697 5.33332 13.3333C5.33332 12.597 4.73637 12 3.99999 12C3.26361 12 2.66666 12.597 2.66666 13.3333C2.66666 14.0697 3.26361 14.6667 3.99999 14.6667Z" stroke="#495D69" stroke-width="1.5"/>
<path d="M11.3333 14.6667C12.0697 14.6667 12.6667 14.0697 12.6667 13.3333C12.6667 12.597 12.0697 12 11.3333 12C10.597 12 10 12.597 10 13.3333C10 14.0697 10.597 14.6667 11.3333 14.6667Z" stroke="#495D69" stroke-width="1.5"/>
<path d="M5.33334 13.3333H10" stroke="#495D69" stroke-width="1.5" stroke-linecap="round"/>
<path d="M1.33334 1.33333H1.97734C2.60713 1.33333 3.1561 1.74972 3.30885 2.34328L5.29236 10.051C5.39259 10.4405 5.30681 10.8531 5.05884 11.1744L4.42143 12" stroke="#495D69" stroke-width="1.5" stroke-linecap="round"/>
</svg>
