<svg width="24" height="24" viewBox="0 0 24 24" fill="none" xmlns="http://www.w3.org/2000/svg">
<path d="M11.318 15.162C8.19269 12.8487 7.34564 10.7544 7.19603 9.63893C7.07502 8.73662 7.33528 8.40158 7.38175 8.34685C7.60918 8.21313 7.76374 8.16286 7.84406 8.14303C7.92872 8.12214 7.97309 8.12447 7.98937 8.12583C8.02934 8.12919 8.09337 8.14939 8.15633 8.19668L8.15667 8.19693C8.17423 8.21011 8.19265 8.22396 8.21184 8.23839C8.43278 8.40452 8.75623 8.64774 9.04892 8.83935C9.21609 8.9488 9.51731 9.13837 9.89826 9.31052C10.2435 9.46651 11.0003 9.77087 12.0001 9.77087C12.9998 9.77087 13.7567 9.46651 14.1019 9.31052C14.4828 9.13837 14.7841 8.9488 14.9512 8.83936C15.2439 8.64774 15.5674 8.40453 15.7883 8.2384C15.8075 8.22397 15.8259 8.21012 15.8435 8.19693L15.8438 8.19669C15.9068 8.14939 15.9708 8.12919 16.0108 8.12583C16.0271 8.12447 16.0715 8.12214 16.1561 8.14304C16.2364 8.16286 16.391 8.21313 16.6184 8.34683C16.6649 8.40157 16.9251 8.73663 16.8041 9.63894C16.6545 10.7544 15.8076 12.8487 12.6822 15.1619M11.318 15.162L8.49213 18.9799M11.318 15.162L8.49213 18.9799M11.318 15.162C11.6042 15.3738 11.8188 15.5322 12.0001 15.6618C12.1814 15.5322 12.396 15.3737 12.6822 15.1619M8.49213 18.9799L8.49218 18.98C9.97391 20.0767 10.7148 20.625 12.0001 20.625C13.2854 20.625 14.0263 20.0766 15.5081 18.9799M8.49213 18.9799C0.712563 13.2218 1.47573 6.39657 4.84846 4.32773C7.41837 2.75135 9.66138 3.38661 11.0088 4.39851L11.0097 4.3992C11.5617 4.81365 11.8376 5.02087 12.0001 5.02087C12.1625 5.02087 12.4385 4.81365 12.9905 4.3992L12.9914 4.39851C14.3388 3.38661 16.5818 2.75135 19.1517 4.32773C22.5244 6.39657 23.2876 13.2218 15.5081 18.9799M12.6822 15.1619L15.5081 18.9799M12.6822 15.1619L15.5081 18.9799" stroke="#C1CF16" stroke-width="9.5" stroke-linecap="round"/>
</svg>
