<svg width="16" height="16" viewBox="0 0 16 16" fill="none" xmlns="http://www.w3.org/2000/svg">
<path d="M6.66663 12H9.33329" stroke="#495D69" stroke-width="1.5" stroke-linecap="round" stroke-linejoin="round"/>
<path d="M1.56763 8.809C1.33229 7.27746 1.21461 6.51175 1.50415 5.83292C1.79369 5.15408 2.43606 4.68961 3.7208 3.7607L4.6807 3.06666C6.2789 1.91111 7.07797 1.33333 8.00004 1.33333C8.92211 1.33333 9.72117 1.91111 11.3194 3.06666L12.2793 3.7607C13.564 4.68961 14.2064 5.15408 14.4959 5.83292C14.7854 6.51175 14.6678 7.27746 14.4324 8.809L14.2318 10.1149C13.8981 12.2859 13.7313 13.3715 12.9527 14.0191C12.1741 14.6667 11.0358 14.6667 8.75924 14.6667H7.24084C4.96426 14.6667 3.82598 14.6667 3.04737 14.0191C2.26877 13.3715 2.10195 12.2859 1.76833 10.1149L1.56763 8.809Z" stroke="#495D69" stroke-width="1.5" stroke-linejoin="round"/>
</svg>
