<svg width="16" height="16" viewBox="0 0 16 16" fill="none" xmlns="http://www.w3.org/2000/svg">
<path d="M2.99992 6.33337H2.66659C2.03805 6.33337 1.72378 6.33337 1.52851 6.52863C1.33325 6.72391 1.33325 7.03817 1.33325 7.66671V13.3334C1.33325 13.9619 1.33325 14.2762 1.52851 14.4714C1.72378 14.6667 2.03805 14.6667 2.66659 14.6667H2.99992C3.62846 14.6667 3.94273 14.6667 4.13799 14.4714C4.33325 14.2762 4.33325 13.9619 4.33325 13.3334V7.66671C4.33325 7.03817 4.33325 6.72391 4.13799 6.52863C3.94273 6.33337 3.62846 6.33337 2.99992 6.33337Z" stroke="#0C0D0D" stroke-width="1.5"/>
<path d="M4.33325 2.83337C4.33325 3.6618 3.66168 4.33337 2.83325 4.33337C2.00483 4.33337 1.33325 3.6618 1.33325 2.83337C1.33325 2.00495 2.00483 1.33337 2.83325 1.33337C3.66168 1.33337 4.33325 2.00495 4.33325 2.83337Z" stroke="#0C0D0D" stroke-width="1.5"/>
<path d="M8.21725 6.33337H7.66659C7.03805 6.33337 6.72378 6.33337 6.52851 6.52863C6.33325 6.72391 6.33325 7.03817 6.33325 7.66671V13.3334C6.33325 13.9619 6.33325 14.2762 6.52851 14.4714C6.72378 14.6667 7.03805 14.6667 7.66659 14.6667H7.99992C8.62845 14.6667 8.94272 14.6667 9.13799 14.4714C9.33325 14.2762 9.33325 13.9619 9.33325 13.3334L9.33332 11.0001C9.33332 9.89557 9.68532 9.00011 10.7252 9.00011C11.2451 9.00011 11.6666 9.44784 11.6666 10.0001V13.0001C11.6666 13.6286 11.6666 13.9429 11.8619 14.1382C12.0571 14.3334 12.3714 14.3334 12.9999 14.3334H13.3324C13.9608 14.3334 14.275 14.3334 14.4703 14.1382C14.6655 13.943 14.6656 13.6288 14.6657 13.0004L14.6667 9.33351C14.6667 7.67671 13.0909 6.33353 11.5311 6.33353C10.6432 6.33353 9.85105 6.76877 9.33332 7.44937C9.33325 7.02931 9.33325 6.81931 9.24205 6.66337C9.18425 6.56461 9.10199 6.48239 9.00325 6.42462C8.84732 6.33337 8.63732 6.33337 8.21725 6.33337Z" stroke="#0C0D0D" stroke-width="1.5" stroke-linejoin="round"/>
</svg>
