<svg width="17" height="16" viewBox="0 0 17 16" fill="none" xmlns="http://www.w3.org/2000/svg">
<path d="M5.83331 10.6667L11.6467 10.1822C13.4657 10.0307 13.874 9.63333 14.0756 7.81927L14.5 4" stroke="#141C24" stroke-width="1.5" stroke-linecap="round"/>
<path d="M4.5 4H6.16667M15.1667 4H12.8333" stroke="#141C24" stroke-width="1.5" stroke-linecap="round"/>
<path d="M7.83331 5.66667C8.16098 6.0038 9.03318 7.33333 9.49998 7.33333M9.49998 7.33333C9.96678 7.33333 10.839 6.0038 11.1666 5.66667M9.49998 7.33333V2" stroke="#0C0D0D" stroke-width="1.5" stroke-linecap="round" stroke-linejoin="round"/>
<path d="M4.50002 14.6667C5.2364 14.6667 5.83335 14.0697 5.83335 13.3333C5.83335 12.597 5.2364 12 4.50002 12C3.76364 12 3.16669 12.597 3.16669 13.3333C3.16669 14.0697 3.76364 14.6667 4.50002 14.6667Z" stroke="#0C0D0D" stroke-width="1.5"/>
<path d="M11.8333 14.6667C12.5697 14.6667 13.1667 14.0697 13.1667 13.3333C13.1667 12.597 12.5697 12 11.8333 12C11.097 12 10.5 12.597 10.5 13.3333C10.5 14.0697 11.097 14.6667 11.8333 14.6667Z" stroke="#0C0D0D" stroke-width="1.5"/>
<path d="M5.83331 13.3333H10.5" stroke="#0C0D0D" stroke-width="1.5" stroke-linecap="round"/>
<path d="M1.83331 1.33334H2.47731C3.1071 1.33334 3.65607 1.74974 3.80882 2.3433L5.79233 10.051C5.89256 10.4405 5.80678 10.8531 5.55881 11.1744L4.9214 12" stroke="#0C0D0D" stroke-width="1.5" stroke-linecap="round"/>
</svg>
