<svg width="16" height="16" viewBox="0 0 16 16" fill="none" xmlns="http://www.w3.org/2000/svg">
<path d="M1.97791 6.99707V10.3316C1.97791 12.2179 1.97791 13.161 2.56369 13.747C3.14948 14.3331 4.09229 14.3331 5.97791 14.3331H9.97791C11.8635 14.3331 12.8063 14.3331 13.3921 13.747C13.9779 13.161 13.9779 12.2179 13.9779 10.3316V6.99707" stroke="#495D69" stroke-width="1.5" stroke-linecap="round"/>
<path d="M4.64453 11.9955H7.3112" stroke="#495D69" stroke-width="1.5" stroke-linecap="round"/>
<path d="M6.73591 5.612C6.54792 6.29093 5.86423 7.46207 4.56522 7.6318C3.41826 7.78167 2.54835 7.28107 2.32615 7.07174C2.08116 6.902 1.52281 6.35882 1.38608 6.01936C1.24934 5.67989 1.40887 4.94438 1.52281 4.64452L1.97833 3.3256C2.08953 2.99432 2.34984 2.21078 2.61671 1.94576C2.88359 1.68074 3.42391 1.66921 3.64631 1.66921H8.31664C9.51877 1.6862 12.1473 1.6585 12.6669 1.66922C13.1865 1.67994 13.4988 2.1155 13.5899 2.3022C14.3652 4.18008 14.6667 5.25556 14.6667 5.71384C14.5655 6.20272 14.1467 7.12454 12.6669 7.53C11.1289 7.9514 10.257 7.13174 9.98344 6.81714M6.10352 6.81714C6.32002 7.083 6.99917 7.61827 7.98364 7.6318C8.96817 7.6454 9.81824 6.95854 10.1202 6.61342C10.2056 6.51158 10.3902 6.20946 10.5817 5.612" stroke="#495D69" stroke-width="1.5" stroke-linecap="round" stroke-linejoin="round"/>
</svg>
