<svg width="16" height="16" viewBox="0 0 16 16" fill="none" xmlns="http://www.w3.org/2000/svg">
<path d="M1.97778 6.99707V10.3316C1.97778 12.2179 1.97778 13.161 2.56357 13.747C3.14936 14.3331 4.09216 14.3331 5.97778 14.3331H9.97778C11.8634 14.3331 12.8062 14.3331 13.392 13.747C13.9778 13.161 13.9778 12.2179 13.9778 10.3316V6.99707" stroke="#C1CF16" stroke-width="1.5" stroke-linecap="round"/>
<path d="M4.64453 11.9955H7.3112" stroke="#C1CF16" stroke-width="1.5" stroke-linecap="round"/>
<path d="M6.73578 5.61198C6.5478 6.29091 5.8641 7.46205 4.5651 7.63179C3.41814 7.78165 2.54822 7.28105 2.32602 7.07172C2.08104 6.90199 1.52269 6.35881 1.38596 6.01934C1.24922 5.67987 1.40874 4.94437 1.52269 4.64451L1.9782 3.32558C2.0894 2.9943 2.34972 2.21077 2.61659 1.94575C2.88347 1.68073 3.42379 1.66919 3.64618 1.66919H8.31652C9.51865 1.68618 12.1472 1.65848 12.6668 1.6692C13.1864 1.67992 13.4987 2.11548 13.5898 2.30219C14.3651 4.18007 14.6666 5.25555 14.6666 5.71382C14.5654 6.2027 14.1466 7.12452 12.6668 7.52999C11.1288 7.95139 10.2569 7.13172 9.98332 6.81712M6.1034 6.81712C6.3199 7.08299 6.99905 7.61825 7.98352 7.63179C8.96805 7.64539 9.81812 6.95852 10.1201 6.61341C10.2055 6.51157 10.3901 6.20945 10.5816 5.61198" stroke="#C1CF16" stroke-width="1.5" stroke-linecap="round" stroke-linejoin="round"/>
</svg>
